<?xml version="1.0" standalone="no"?>
<!DOCTYPE svg PUBLIC "-//W3C//DTD SVG 20010904//EN"
 "http://www.w3.org/TR/2001/REC-SVG-20010904/DTD/svg10.dtd">
<svg version="1.0" xmlns="http://www.w3.org/2000/svg"
 width="500.000000pt" height="500.000000pt" viewBox="0 0 500.000000 500.000000"
 preserveAspectRatio="xMidYMid meet">
<metadata>
Created by potrace 1.14, written by Peter Selinger 2001-2017
</metadata>
<g transform="translate(0.000000,500.000000) scale(0.100000,-0.100000)"
fill="#000000" stroke="none">
<path d="M1953 4490 c-51 -21 -55 -44 -55 -273 0 -116 1 -220 1 -229 1 -9 12
-30 25 -45 l24 -28 194 -5 c183 -5 196 -6 248 -32 30 -14 69 -40 86 -56 54
-53 203 -256 217 -297 11 -31 15 -108 15 -335 1 -162 1 -308 1 -323 1 -18 12
-40 30 -57 l28 -29 315 -1 c184 0 326 4 341 9 58 22 59 31 61 395 1 362 -2
342 60 396 78 67 127 99 149 94 12 -3 87 -5 166 -5 210 0 214 5 214 217 0 86
-5 149 -12 162 -23 42 -56 50 -213 48 -147 -1 -148 -1 -175 -28 -27 -28 -27
-29 -29 -177 -1 -84 -7 -158 -13 -169 -13 -25 -145 -133 -186 -154 -25 -12
-87 -14 -345 -13 -173 1 -324 4 -335 8 -11 4 -42 38 -70 75 -27 37 -52 69 -55
72 -26 25 -122 163 -134 192 -13 30 -16 83 -16 277 0 165 -4 248 -12 266 -23
50 -48 55 -285 54 -120 0 -228 -4 -240 -9z"/>
<path d="M3058 4350 c-76 -13 -148 -98 -148 -175 0 -46 34 -125 64 -147 91
-66 201 -52 270 35 28 35 31 46 31 105 0 54 -5 73 -23 99 -46 64 -119 96 -194
83z"/>
<path d="M1018 4150 c-53 -4 -73 -10 -90 -28 -21 -21 -23 -32 -26 -166 -6
-225 4 -236 219 -236 70 0 139 -4 153 -9 30 -12 166 -185 167 -214 1 -12 2
-159 3 -326 1 -233 -2 -310 -12 -330 -17 -34 -288 -241 -338 -258 -28 -10
-103 -14 -269 -14 -128 0 -244 -5 -263 -10 -57 -18 -62 -42 -62 -283 0 -118 4
-226 10 -240 20 -55 44 -60 269 -61 219 -1 253 3 286 35 18 19 20 36 25 213 7
267 15 282 219 439 171 131 133 122 511 123 300 1 327 2 353 20 16 10 33 29
38 42 13 35 12 626 -2 656 -25 55 -39 57 -388 57 -226 0 -328 3 -346 12 -14 6
-53 45 -86 86 -54 68 -65 89 -60 116 8 42 1 307 -8 325 -28 52 -108 66 -303
51z"/>
<path d="M774 3354 c-38 -9 -101 -72 -116 -116 -56 -164 103 -303 259 -227
126 61 127 260 1 325 -32 16 -107 26 -144 18z"/>
<path d="M3909 3052 c-15 -8 -32 -26 -38 -40 -6 -15 -12 -107 -14 -207 -3
-174 -4 -183 -30 -237 -31 -63 -74 -105 -220 -216 -65 -50 -113 -78 -144 -86
-33 -8 -141 -12 -343 -11 -162 1 -307 -3 -323 -8 -15 -5 -36 -20 -47 -34 -19
-24 -20 -41 -20 -340 0 -341 2 -357 55 -381 18 -9 119 -12 345 -12 225 0 327
-3 345 -12 14 -6 53 -45 86 -86 53 -67 66 -95 59 -127 -1 -5 -2 -74 -2 -152
-1 -208 4 -213 218 -213 205 0 214 9 214 215 0 206 -9 215 -214 215 -74 0
-146 4 -159 9 -33 13 -157 173 -166 214 -4 18 -7 169 -6 337 1 243 4 309 15
327 21 33 300 239 341 252 23 8 124 12 271 12 255 1 284 6 307 55 7 16 11 104
11 250 l0 226 -29 29 c-34 33 -15 31 -280 33 -152 1 -211 -2 -232 -12z"/>
<path d="M1449 2245 c-46 -25 -48 -44 -48 -383 0 -187 -5 -330 -10 -345 -6
-15 -47 -55 -91 -90 -63 -50 -87 -63 -108 -61 -61 8 -314 3 -332 -6 -40 -22
-50 -61 -50 -204 0 -80 5 -145 11 -160 20 -43 61 -54 199 -54 213 0 220 7 221
214 1 76 6 148 12 161 12 26 161 147 197 159 14 4 164 8 334 9 349 0 345 1
400 -74 18 -25 66 -89 106 -141 40 -52 80 -111 88 -130 11 -27 15 -88 17 -275
1 -132 5 -252 9 -267 15 -51 50 -58 295 -58 l221 0 32 29 33 29 2 219 c1 120
-3 232 -8 250 -19 59 -43 66 -229 65 -257 -2 -293 14 -444 208 -136 176 -129
146 -130 533 l-1 329 -33 29 -32 29 -318 0 c-251 -1 -322 -4 -343 -15z"/>
<path d="M4050 2039 c-32 -13 -78 -56 -96 -90 -16 -32 -21 -104 -10 -139 50
-153 277 -170 341 -25 31 70 26 128 -17 192 -42 61 -146 91 -218 62z"/>
<path d="M1749 1046 c-51 -13 -80 -31 -107 -67 -59 -76 -45 -195 30 -252 123
-94 298 -12 300 141 0 121 -107 207 -223 178z"/>
</g>
</svg>
